<?xml version="1.0" encoding="utf-8"?>
<!-- Generator: Adobe Illustrator 27.9.0, SVG Export Plug-In . SVG Version: 6.00 Build 0)  -->
<svg version="1.1" id="a" xmlns="http://www.w3.org/2000/svg" xmlns:xlink="http://www.w3.org/1999/xlink" x="0px" y="0px"
	 viewBox="0 0 227.8 199.8" style="enable-background:new 0 0 227.8 199.8;" xml:space="preserve">
<style type="text/css">
	.st0{fill:#C46431;}
	.st1{fill:#90481E;}
	.st2{fill:#AB5729;}
	.st3{fill:#A1A1A1;}
	.st4{fill:#DFDFDF;}
	.st5{fill:#E07239;}
	.st6{font-family:'ArialRoundedMTBold';}
	.st7{font-size:18.3209px;}
</style>
<g>
	<polygon class="st0" points="164.8,74.6 165.4,125.6 131,138.3 130.3,87.3 	"/>
	<polygon class="st1" points="131,138.3 93.3,126 92.6,75.1 130.3,87.3 	"/>
	<polygon class="st2" points="130.3,87.3 92.6,75.1 127.1,62.4 164.8,74.6 	"/>
</g>
<path class="st3" d="M115,118.1c0.1,0.9,0.1,1.6,0.1,1.9s-0.2,0.7-0.4,0.9s-0.4,0.5-0.7,0.6c-0.3,0.1-0.6,0.2-0.9,0.1
	c-0.4-0.1-0.7-0.4-0.9-0.7c-0.2-0.4-0.4-0.8-0.5-1.2c-0.1-0.5-0.3-1.2-0.5-2.1l-0.8-3.9c-0.3-1.4-0.6-2.5-0.8-3.3
	c-0.3-0.8-0.6-1.4-0.9-1.7c-0.4-0.4-0.8-0.6-1.4-0.8l-1.2-0.4l-1.4,8.3c-0.2,1.1-0.5,1.8-0.8,2.3c-0.4,0.4-0.8,0.6-1.4,0.4
	c-0.6-0.2-0.9-0.6-1.1-1.2c-0.2-0.6-0.2-1.5,0-2.5l3.2-19.8c0.2-1.1,0.5-1.9,0.9-2.3s1-0.5,1.7-0.3l5.5,1.6c0.7,0.2,1.4,0.5,1.9,0.7
	c0.5,0.3,1,0.6,1.4,1c0.5,0.5,0.8,1.1,1.2,1.9c0.3,0.8,0.5,1.6,0.6,2.5s0,1.8-0.1,2.7c-0.3,1.9-0.9,3.4-1.8,4.3
	c-0.9,0.9-2.1,1.4-3.6,1.5c0.5,0.7,1,1.6,1.4,2.7c0.4,1.1,0.7,2.3,1,3.5C114.7,116.1,114.9,117.1,115,118.1L115,118.1z M111.8,105
	c0.6-0.1,1.1-0.3,1.4-0.7c0.4-0.4,0.7-1.1,0.8-2c0.1-0.7,0.1-1.4,0-2s-0.4-1.1-0.8-1.5c-0.4-0.4-1.1-0.7-2.3-1.1l-3.1-0.9l-1.2,7.1
	l3,0.9C110.5,104.9,111.2,105,111.8,105"/>
<path class="st4" d="M153.9,93.5c0.7-0.2,1.3-0.1,1.7,0.2c0.4,0.3,0.6,1,0.6,2.1l-0.3,19.9c0,1-0.2,1.7-0.5,2.3
	c-0.3,0.6-0.7,0.9-1.3,1c-0.5,0.1-0.9-0.1-1.2-0.4c-0.3-0.4-0.5-1.1-0.4-2l0.3-17.4l-3.2,16.7c-0.2,1.1-0.4,1.9-0.5,2.4
	c-0.1,0.5-0.4,1-0.7,1.5s-0.8,0.8-1.4,0.9c-0.4,0.1-0.8,0.1-1.1-0.1c-0.3-0.2-0.5-0.5-0.7-0.8c-0.2-0.4-0.3-0.8-0.4-1.2
	s-0.2-1-0.3-1.4l-2.7-15.3l-0.3,17.4c0,1-0.2,1.7-0.5,2.3c-0.3,0.6-0.7,0.9-1.3,1c-0.5,0.1-0.9,0-1.2-0.4c-0.3-0.4-0.5-1.1-0.4-2
	l0.3-19.9c0-1.1,0.2-1.9,0.7-2.4c0.4-0.5,1-0.8,1.7-1l1.2-0.3c0.7-0.2,1.2-0.2,1.5-0.1c0.3,0.1,0.6,0.4,0.7,0.8
	c0.1,0.4,0.3,1.1,0.5,2l2.5,13.1l2.9-14.4c0.2-1.1,0.4-1.8,0.6-2.3c0.1-0.5,0.4-0.9,0.7-1.1c0.3-0.3,0.8-0.5,1.5-0.6L153.9,93.5
	L153.9,93.5z"/>
<text transform="matrix(0.9166 0 0 1 82.355 156.4916)" class="st5 st6 st7">R</text>
<text transform="matrix(0.9166 0 0 1 94.0166 156.4916)" class="st5 st6 st7">euss Media</text>
</svg>
