<?xml version="1.0" encoding="UTF-8"?>
<svg id="uuid-7cb6dcc1-721b-4963-a32f-82cca8991f42" data-name="a" xmlns="http://www.w3.org/2000/svg" width="103.18" height="97.97" viewBox="0 0 103.18 97.97">
  <defs>
    <style>
      .uuid-6937ff6a-acd4-4edc-82c5-3e1ab3f14f19 {
        fill: #e07239;
        font-family: ArialRoundedMTBold, 'Arial Rounded MT Bold';
        font-size: 18.32px;
        isolation: isolate;
      }

      .uuid-daef8e5b-1c8e-48d6-a16c-643503090f2c {
        fill: #dfdfdf;
      }

      .uuid-daef8e5b-1c8e-48d6-a16c-643503090f2c, .uuid-e8980709-66af-487c-86e0-cb83be1b0bf5, .uuid-31ea4945-ed0a-4af1-b8da-ddfba1e16334, .uuid-ce362059-0337-4b65-a21c-42889613df14, .uuid-995b6576-0be1-47be-a7cf-009f6826e30b {
        stroke-width: 0px;
      }

      .uuid-e8980709-66af-487c-86e0-cb83be1b0bf5 {
        fill: #c46431;
      }

      .uuid-31ea4945-ed0a-4af1-b8da-ddfba1e16334 {
        fill: #ab5729;
      }

      .uuid-ce362059-0337-4b65-a21c-42889613df14 {
        fill: #90481e;
      }

      .uuid-995b6576-0be1-47be-a7cf-009f6826e30b {
        fill: #a1a1a1;
      }
    </style>
  </defs>
  <g>
    <polygon class="uuid-e8980709-66af-487c-86e0-cb83be1b0bf5" points="82.43 12.21 83.08 63.21 48.61 75.88 47.91 24.89 82.43 12.21"/>
    <polygon class="uuid-ce362059-0337-4b65-a21c-42889613df14" points="48.61 75.88 10.96 63.61 10.26 12.67 47.91 24.89 48.61 75.88"/>
    <polygon class="uuid-31ea4945-ed0a-4af1-b8da-ddfba1e16334" points="47.91 24.89 10.26 12.67 44.78 0 82.43 12.21 47.91 24.89"/>
  </g>
  <path class="uuid-995b6576-0be1-47be-a7cf-009f6826e30b" d="m32.65,55.73c.09.92.14,1.58.09,1.93s-.19.66-.37.92-.42.51-.7.61-.56.15-.89.05c-.37-.1-.7-.36-.89-.71-.23-.36-.37-.76-.51-1.22-.09-.46-.28-1.17-.47-2.09l-.79-3.87c-.28-1.42-.56-2.49-.84-3.31-.28-.76-.61-1.37-.93-1.73-.37-.36-.84-.61-1.45-.81l-1.17-.36-1.4,8.3c-.19,1.07-.47,1.83-.84,2.29-.37.41-.84.56-1.35.41-.56-.15-.93-.56-1.12-1.17-.23-.61-.23-1.48-.05-2.49l3.22-19.8c.19-1.12.47-1.88.89-2.29s.98-.51,1.73-.31l5.5,1.63c.75.2,1.4.46,1.91.71.51.25.98.61,1.35,1.02.47.51.84,1.12,1.17,1.88s.47,1.58.56,2.49.05,1.83-.09,2.75c-.33,1.93-.93,3.36-1.82,4.27s-2.1,1.42-3.59,1.48c.51.66.98,1.58,1.35,2.7.37,1.12.7,2.29.98,3.51.23,1.17.42,2.24.51,3.21h0Zm-3.22-13.13c.61-.05,1.07-.31,1.45-.71s.65-1.12.79-2.04c.09-.71.09-1.37-.05-1.98-.14-.61-.42-1.12-.79-1.53-.37-.36-1.12-.71-2.29-1.07l-3.13-.92-1.17,7.07,3.03.92c.84.2,1.54.31,2.15.25"/>
  <path class="uuid-daef8e5b-1c8e-48d6-a16c-643503090f2c" d="m71.51,31.09c.7-.15,1.31-.1,1.68.15.42.25.61.97.61,2.09l-.33,19.9c0,.97-.19,1.73-.51,2.29-.33.56-.75.92-1.31,1.02-.51.1-.89-.05-1.21-.41-.33-.41-.47-1.07-.42-2.04l.28-17.35-3.22,16.74c-.19,1.07-.37,1.88-.51,2.39s-.37,1.02-.7,1.48-.79.81-1.35.92c-.42.1-.79.05-1.12-.1-.28-.2-.51-.46-.7-.81s-.28-.76-.37-1.22-.19-.97-.28-1.42l-2.71-15.32-.28,17.35c0,.97-.19,1.73-.51,2.29s-.75.92-1.26,1.02-.93,0-1.21-.41-.47-1.07-.42-2.04l.33-19.9c0-1.12.23-1.88.65-2.39s.98-.81,1.73-.97l1.17-.31c.7-.15,1.21-.2,1.49-.1s.56.36.7.76.28,1.12.47,2.04l2.47,13.13,2.94-14.4c.19-1.07.42-1.83.56-2.29s.42-.87.7-1.12c.33-.25.84-.46,1.54-.61l1.12-.36h0Z"/>
  <text class="uuid-6937ff6a-acd4-4edc-82c5-3e1ab3f14f19" transform="translate(0 94.1) scale(.92 1)"><tspan x="0" y="0">R</tspan></text>
  <text class="uuid-6937ff6a-acd4-4edc-82c5-3e1ab3f14f19" transform="translate(11.66 94.1) scale(.92 1)"><tspan x="0" y="0">euss Media</tspan></text>
</svg>